<svg width="1476" height="88" viewBox="0 0 1476 88" fill="none" xmlns="http://www.w3.org/2000/svg">
<path d="M105.055 1.39062V26.5859H78.4531C68.4141 26.2734 66.9297 29.0469 74 34.9062C86.6562 46 92.8672 56.7812 92.6328 67.25C92.3984 77.7188 86.1875 83.9688 74 86H0.171875V60.8047H46.8125C57.8672 61.1172 59.2734 58.0312 51.0312 51.5469C37.4375 39.0469 31.6562 27.5625 33.6875 17.0938C35.7188 6.625 42.125 1.39062 52.9062 1.39062H105.055ZM99.0781 86V1.39062H171.617V26.5859H126.617V36.3125H155.68V51.0781H126.617V60.8047H178.766V86H99.0781ZM178.766 86V1.39062H206.305V60.8047H252.125V86H178.766ZM255.641 86V1.39062H328.18V26.5859H283.18V36.3125H312.242V51.0781H283.18V60.8047H335.328V86H255.641ZM392.281 60.8047H418.766V86H381.266C372.086 86 363.785 84.3789 356.363 81.1367C348.941 77.8555 343.082 72.9531 338.785 66.4297C334.527 59.9062 332.398 51.918 332.398 42.4648C332.398 35.8242 333.668 29.9062 336.207 24.7109C338.785 19.4766 342.34 15.1406 346.871 11.7031C351.402 8.22656 356.598 5.64844 362.457 3.96875C368.355 2.25 374.625 1.39062 381.266 1.39062H404.469H418.766V26.5859H392.281C386.344 26.5859 381.949 26.7617 379.098 27.1133C376.246 27.4648 373.707 28.0508 371.48 28.8711C369.254 29.6914 367.281 31.1172 365.562 33.1484C363.844 35.1797 362.848 38.7734 362.574 43.9297C362.77 48.9297 363.766 52.5039 365.562 54.6523C367.359 56.8008 369.547 58.2266 372.125 58.9297C374.703 59.6328 377.359 60.1211 380.094 60.3945C382.828 60.668 386.891 60.8047 392.281 60.8047ZM479.234 60.8047H505.719V86H468.219C459.039 86 450.738 84.3789 443.316 81.1367C435.895 77.8555 430.035 72.9531 425.738 66.4297C421.48 59.9062 419.352 51.918 419.352 42.4648C419.352 35.8242 420.621 29.9062 423.16 24.7109C425.738 19.4766 429.293 15.1406 433.824 11.7031C438.355 8.22656 443.551 5.64844 449.41 3.96875C455.309 2.25 461.578 1.39062 468.219 1.39062H491.422H505.719V26.5859H479.234C473.297 26.5859 468.902 26.7617 466.051 27.1133C463.199 27.4648 460.66 28.0508 458.434 28.8711C456.207 29.6914 454.234 31.1172 452.516 33.1484C450.797 35.1797 449.801 38.7734 449.527 43.9297C449.723 48.9297 450.719 52.5039 452.516 54.6523C454.312 56.8008 456.5 58.2266 459.078 58.9297C461.656 59.6328 464.312 60.1211 467.047 60.3945C469.781 60.668 473.844 60.8047 479.234 60.8047ZM508.062 1.39062H535.602V86H508.062V1.39062ZM635.68 44.1641C635.68 53.4219 633.746 61.3125 629.879 67.8359C626.012 74.3594 620.406 79.2617 613.062 82.543C605.758 85.8242 597.027 87.4648 586.871 87.4648C576.715 87.4648 567.984 85.8242 560.68 82.543C553.414 79.2227 547.906 74.3398 544.156 67.8945C540.406 61.4102 538.531 53.5 538.531 44.1641C538.531 37.0938 539.605 30.8828 541.754 25.5312C543.902 20.1406 547.047 15.6094 551.188 11.9375C555.328 8.26562 560.406 5.49219 566.422 3.61719C572.438 1.70312 579.254 0.746094 586.871 0.746094C596.988 0.746094 605.719 2.42578 613.062 5.78516C620.406 9.10547 626.012 14.0273 629.879 20.5508C633.746 27.0352 635.68 34.9062 635.68 44.1641ZM568.59 44.3984C568.59 49.8281 569.801 54.5547 572.223 58.5781C574.684 62.6016 579.508 64.6133 586.695 64.6133C592.242 64.6133 596.383 63.5586 599.117 61.4492C601.891 59.3398 603.609 56.9375 604.273 54.2422C604.977 51.5078 605.445 48.2266 605.68 44.3984C605.445 38.9688 604.137 34.2422 601.754 30.2188C599.371 26.1562 594.352 24.125 586.695 24.125C574.625 24.125 568.59 30.8828 568.59 44.3984ZM639.781 86V1.39062H667.32L692.516 33.0312V1.39062H720.055V86H692.516L667.32 54.3594V86H639.781ZM715.367 86L743.199 1.39062H785.211L813.512 86H781.52L776.188 70.7656H751.051L745.719 86H715.367ZM764.293 20.1406L752.164 53.6562H775.484L764.293 20.1406ZM866.891 86V1.39062H894.43L912.945 36.5469L931.344 1.39062H958.883V86H931.344V50.8438L913.648 86H912.125L894.43 50.8438V86H866.891ZM956.539 86L984.371 1.39062H1026.38L1054.68 86H1022.69L1017.36 70.7656H992.223L986.891 86H956.539ZM1005.46 20.1406L993.336 53.6562H1016.66L1005.46 20.1406ZM1120.13 1.39062V26.5859H1099.51C1089.47 26.2734 1087.98 29.0469 1095.05 34.9062C1107.71 46 1113.92 56.7812 1113.69 67.25C1113.45 77.7188 1107.24 83.9688 1095.05 86H1050.05V60.8047H1067.87C1078.92 61.1172 1080.33 58.0312 1072.09 51.5469C1058.49 39.0469 1052.71 27.5625 1054.74 17.0938C1056.77 6.625 1063.18 1.39062 1073.96 1.39062H1120.13ZM1177.09 60.8047H1203.57V86H1166.07C1156.89 86 1148.59 84.3789 1141.17 81.1367C1133.75 77.8555 1127.89 72.9531 1123.59 66.4297C1119.33 59.9062 1117.2 51.918 1117.2 42.4648C1117.2 35.8242 1118.47 29.9062 1121.01 24.7109C1123.59 19.4766 1127.14 15.1406 1131.68 11.7031C1136.21 8.22656 1141.4 5.64844 1147.26 3.96875C1153.16 2.25 1159.43 1.39062 1166.07 1.39062H1189.27H1203.57V26.5859H1177.09C1171.15 26.5859 1166.75 26.7617 1163.9 27.1133C1161.05 27.4648 1158.51 28.0508 1156.29 28.8711C1154.06 29.6914 1152.09 31.1172 1150.37 33.1484C1148.65 35.1797 1147.65 38.7734 1147.38 43.9297C1147.57 48.9297 1148.57 52.5039 1150.37 54.6523C1152.16 56.8008 1154.35 58.2266 1156.93 58.9297C1159.51 59.6328 1162.16 60.1211 1164.9 60.3945C1167.63 60.668 1171.7 60.8047 1177.09 60.8047ZM1301.3 44.1641C1301.3 53.4219 1299.37 61.3125 1295.5 67.8359C1291.64 74.3594 1286.03 79.2617 1278.69 82.543C1271.38 85.8242 1262.65 87.4648 1252.5 87.4648C1242.34 87.4648 1233.61 85.8242 1226.3 82.543C1219.04 79.2227 1213.53 74.3398 1209.78 67.8945C1206.03 61.4102 1204.16 53.5 1204.16 44.1641C1204.16 37.0938 1205.23 30.8828 1207.38 25.5312C1209.53 20.1406 1212.67 15.6094 1216.81 11.9375C1220.95 8.26562 1226.03 5.49219 1232.05 3.61719C1238.06 1.70312 1244.88 0.746094 1252.5 0.746094C1262.61 0.746094 1271.34 2.42578 1278.69 5.78516C1286.03 9.10547 1291.64 14.0273 1295.5 20.5508C1299.37 27.0352 1301.3 34.9062 1301.3 44.1641ZM1234.21 44.3984C1234.21 49.8281 1235.43 54.5547 1237.85 58.5781C1240.31 62.6016 1245.13 64.6133 1252.32 64.6133C1257.87 64.6133 1262.01 63.5586 1264.74 61.4492C1267.52 59.3398 1269.23 56.9375 1269.9 54.2422C1270.6 51.5078 1271.07 48.2266 1271.3 44.3984C1271.07 38.9688 1269.76 34.2422 1267.38 30.2188C1265 26.1562 1259.98 24.125 1252.32 24.125C1240.25 24.125 1234.21 30.8828 1234.21 44.3984ZM1382.52 1.39062V26.5859H1355.68V86H1328.14V26.5859H1301.3V1.39062H1382.52ZM1377.24 86L1405.07 1.39062H1447.09L1475.39 86H1443.39L1438.06 70.7656H1412.93L1407.59 86H1377.24ZM1426.17 20.1406L1414.04 53.6562H1437.36L1426.17 20.1406Z" fill="#FFC90A"/>
</svg>
